<?xml version="1.0" standalone="no"?><!DOCTYPE svg PUBLIC "-//W3C//DTD SVG 1.1//EN" "http://www.w3.org/Graphics/SVG/1.1/DTD/svg11.dtd"><svg t="1501465919048" class="icon" style="" viewBox="0 0 1024 1024" version="1.1" xmlns="http://www.w3.org/2000/svg" p-id="1631" xmlns:xlink="http://www.w3.org/1999/xlink" width="200" height="200"><defs><style type="text/css"></style></defs><path d="M843.536 256 704 256l0-63.968C704 156.72 674.656 128 638.592 128L385.392 128C349.328 128 320 156.72 320 192.032L320 256l-139.536 0C116.24 256 64 307.712 64 371.264l0 409.472C64 844.304 116.24 896 180.464 896l663.072 0C907.744 896 960 844.304 960 780.736L960 371.264C960 307.712 907.744 256 843.536 256zM352 192.032C352 174.368 366.976 160 385.392 160l253.2 0C657.008 160 672 174.368 672 192.032L672 256 352 256 352 192.032zM180.464 288l663.072 0C890.112 288 928 325.344 928 371.264L928 448 96 448l0-76.736C96 325.344 133.888 288 180.464 288zM606.064 480c-8.928 36.464-47.696 64-94.064 64s-85.136-27.536-94.064-64L606.064 480zM843.536 864 180.464 864C133.888 864 96 826.64 96 780.736L96 480l289.456 0c8.928 54.176 62.192 96 126.544 96s117.616-41.824 126.544-96L928 480l0 300.736C928 826.64 890.112 864 843.536 864z" p-id="1632"></path></svg>